<?xml version="1.0" standalone="no"?><!DOCTYPE svg PUBLIC "-//W3C//DTD SVG 1.1//EN" "http://www.w3.org/Graphics/SVG/1.1/DTD/svg11.dtd"><svg t="1769833600532" class="icon" viewBox="0 0 1024 1024" version="1.1" xmlns="http://www.w3.org/2000/svg" p-id="17456" xmlns:xlink="http://www.w3.org/1999/xlink" width="200" height="200"><path d="M646.203 277.891L488.625 699.725c-11.724 31.021-28.69 46.53-50.827 46.53-22.5 0-39.613-15.51-51.337-46.458l-57.526-154.082-58.327 154.156c-11.724 30.947-28.69 46.385-50.899 46.385-22.5 0-39.613-15.51-51.409-46.53L10.795 277.892l42.962-0.073 148.767 402.464c5.389 14.272 10.704 21.408 16.093 21.408 6.626 0 12.452-6.917 17.476-20.826L307.6 486.879l-78.352-209.06 42.526 0.073L420.76 680.356c5.461 14.199 10.85 21.335 16.238 21.335 6.7 0 12.597-6.917 17.695-20.826l148.912-402.9 42.598-0.073zM712.905 406.05c0 10.85-5.534 16.311-16.603 16.311-10.559 0-15.802-5.461-15.802-16.311 0-10.559 5.243-15.729 15.802-15.729 11.069 0 16.603 5.17 16.603 15.729z m-5.098 330.738h-22.428V478.649h22.428v258.139zM956.043 736.57l-26.652-0.073-108.134-119.13-61.094 65.973v53.084h-22.5v-381.93h22.5V655.45l167.189-181.316 26.578-0.073-119.639 129.542 121.751 132.965zM1013.204 406.05c0 10.85-5.534 16.311-16.603 16.311-10.559 0-15.802-5.461-15.802-16.311 0-10.559 5.243-15.729 15.802-15.729 11.069 0 16.603 5.17 16.603 15.729z m-5.096 330.738H985.68V478.649h22.428v258.139z" p-id="17457" data-spm-anchor-id="a313x.search_index.0.i0.610b3a81811mrw" class="" fill="#5338da"></path></svg>